<svg width="95" height="26" viewBox="0 0 95 26" fill="none" xmlns="http://www.w3.org/2000/svg">
<path d="M3.0918 10.458H0.853027V6.94958H3.0918C3.0918 2.80955 5.68653 -1.78637 13.6112 0.70486L12.9003 3.96732C8.63534 2.56358 6.53895 4.31779 6.53895 6.94958H12.9003V10.458H6.64574V25.4387H3.0918V10.458Z" fill="#353535"/>
<path d="M14.6416 16.5973V6.94958H18.1955V16.5973C18.1955 20.0706 20.3631 22.1753 23.7035 22.1753C27.0083 22.1753 29.1768 20.1409 29.1768 16.5973V6.94958H32.7307V16.5973C32.7307 22.1402 28.9285 25.6838 23.7044 25.6838C18.4447 25.6838 14.6416 22.1411 14.6416 16.5973Z" fill="#353535"/>
<path d="M36.1434 15.791C36.1434 10.2481 39.9456 6.70453 45.2053 6.70453C50.465 6.70453 54.2316 10.2481 54.2316 15.791V25.4387H50.6776V15.791C50.6776 12.2122 48.5456 10.213 45.2043 10.213C41.864 10.213 39.6964 12.2474 39.6964 15.791V25.4387H36.1425V15.791H36.1434Z" fill="#353535"/>
<path d="M57.7854 16.3523C57.7854 11.0545 62.1562 6.73968 67.5227 6.73968C70.152 6.73968 72.4976 8.14342 73.706 10.1778V0.880569H77.2599V18.2813C77.2599 20.8779 78.7165 21.8248 79.6055 21.8248V25.4387C77.8641 25.4387 75.9092 24.9125 75.0212 21.8951C73.4934 24.4215 70.8986 26 67.5227 26C62.1562 26 57.7854 21.6501 57.7854 16.3523ZM73.7069 16.3523C73.7069 12.9844 70.9352 10.2481 67.5236 10.2481C64.112 10.2481 61.3403 12.9844 61.3403 16.3523C61.3403 19.7202 64.112 22.4916 67.5236 22.4916C70.9342 22.4916 73.7069 19.7202 73.7069 16.3523Z" fill="#353535"/>
<path d="M83.1953 6.9496H86.6068V9.19485C87.566 7.44063 90.2319 6.73876 92.7546 6.9496V10.4932C89.698 10.0373 86.7483 11.7212 86.7483 14.6332V25.4387H83.1943V6.9496H83.1953Z" fill="#353535"/>
<path d="M92.2587 25.4387C93.3016 25.4387 94.1471 24.604 94.1471 23.5744C94.1471 22.5448 93.3016 21.7102 92.2587 21.7102C91.2157 21.7102 90.3702 22.5448 90.3702 23.5744C90.3702 24.604 91.2157 25.4387 92.2587 25.4387Z" fill="#55E748"/>
</svg>
