<svg width="94" height="26" viewBox="0 0 94 26" fill="none" xmlns="http://www.w3.org/2000/svg">
<path d="M2.23877 10.458H0V6.94958H2.23877C2.23877 2.80955 4.8335 -1.78637 12.7582 0.70486L12.0472 3.96732C7.78232 2.56358 5.68592 4.31779 5.68592 6.94958H12.0472V10.458H5.79271V25.4387H2.23877V10.458Z" fill="white"/>
<path d="M13.7891 16.597V6.94922H17.343V16.597C17.343 20.0703 19.5106 22.1749 22.851 22.1749C26.1557 22.1749 28.3242 20.1405 28.3242 16.597V6.94922H31.8782V16.597C31.8782 22.1398 28.076 25.6834 22.8519 25.6834C17.5922 25.6834 13.7891 22.1407 13.7891 16.597Z" fill="white"/>
<path d="M35.29 15.7915C35.29 10.2487 39.0922 6.70508 44.3519 6.70508C49.6116 6.70508 53.3782 10.2487 53.3782 15.7915V25.4392H49.8242V15.7915C49.8242 12.2128 47.6922 10.2135 44.3509 10.2135C41.0106 10.2135 38.843 12.2479 38.843 15.7915V25.4392H35.2891V15.7915H35.29Z" fill="white"/>
<path d="M56.9316 16.3526C56.9316 11.0548 61.3024 6.73997 66.6689 6.73997C69.2983 6.73997 71.6438 8.14371 72.8522 10.1781V0.880859H76.4062V18.2816C76.4062 20.8782 77.8628 21.8251 78.7517 21.8251V25.439C77.0103 25.439 75.0554 24.9128 74.1674 21.8954C72.6396 24.4218 70.0449 26.0003 66.6689 26.0003C61.3024 26.0003 56.9316 21.6504 56.9316 16.3526ZM72.8532 16.3526C72.8532 12.9847 70.0814 10.2484 66.6698 10.2484C63.2583 10.2484 60.4865 12.9847 60.4865 16.3526C60.4865 19.7204 63.2583 22.4919 66.6698 22.4919C70.0805 22.4919 72.8532 19.7204 72.8532 16.3526Z" fill="white"/>
<path d="M82.3427 6.95038H85.7543V9.19563C86.7135 7.44141 89.3794 6.73954 91.902 6.95038V10.494C88.8455 10.0381 85.8957 11.722 85.8957 14.634V25.4395H82.3418V6.95038H82.3427Z" fill="white"/>
<path d="M91.406 25.4395C92.449 25.4395 93.2945 24.6048 93.2945 23.5752C93.2945 22.5456 92.449 21.7109 91.406 21.7109C90.3631 21.7109 89.5176 22.5456 89.5176 23.5752C89.5176 24.6048 90.3631 25.4395 91.406 25.4395Z" fill="#55E748"/>
</svg>
